<?xml version="1.0" encoding="utf-8" ?>
<svg baseProfile="full" height="100%" version="1.1" width="100%" xmlns="http://www.w3.org/2000/svg" xmlns:ev="http://www.w3.org/2001/xml-events" xmlns:xlink="http://www.w3.org/1999/xlink"><defs><filter height="66" id="multiply" width="66" x="0" y="0"><feBlend in="SourceGraphic" mode="multiply" /></filter></defs><g id="horizontal_stripes"><rect fill="#F5B1DB" height="66px" stroke="#F5B1DB" width="4px" x="0px" y="0px" /><rect fill="#3248BA" height="66px" stroke="#3248BA" width="1px" x="4px" y="0px" /><rect fill="#98C0DF" height="66px" stroke="#98C0DF" width="5px" x="5px" y="0px" /><rect fill="#62A469" height="66px" stroke="#62A469" width="5px" x="10px" y="0px" /><rect fill="#F9B77B" height="66px" stroke="#F9B77B" width="9px" x="15px" y="0px" /><rect fill="#98C0DF" height="66px" stroke="#98C0DF" width="1px" x="24px" y="0px" /><rect fill="#F5B1DB" height="66px" stroke="#F5B1DB" width="4px" x="25px" y="0px" /><rect fill="#EA196A" height="66px" stroke="#EA196A" width="4px" x="29px" y="0px" /><rect fill="#3248BA" height="66px" stroke="#3248BA" width="9px" x="33px" y="0px" /><rect fill="#62A469" height="66px" stroke="#62A469" width="5px" x="42px" y="0px" /><rect fill="#F5B1DB" height="66px" stroke="#F5B1DB" width="4px" x="47px" y="0px" /><rect fill="#F5B1DB" height="66px" stroke="#F5B1DB" width="4px" x="51px" y="0px" /><rect fill="#F5B1DB" height="66px" stroke="#F5B1DB" width="2px" x="55px" y="0px" /><rect fill="#62A469" height="66px" stroke="#62A469" width="5px" x="57px" y="0px" /><rect fill="#F5B1DB" height="66px" stroke="#F5B1DB" width="4px" x="62px" y="0px" /></g><g id="vertical_stripes"><rect fill="#F5B1DB" filter="url(#multiply)" height="4px" stroke="#F5B1DB" width="66px" x="0px" y="0px" /><rect fill="#3248BA" filter="url(#multiply)" height="1px" stroke="#3248BA" width="66px" x="0px" y="4px" /><rect fill="#98C0DF" filter="url(#multiply)" height="5px" stroke="#98C0DF" width="66px" x="0px" y="5px" /><rect fill="#62A469" filter="url(#multiply)" height="5px" stroke="#62A469" width="66px" x="0px" y="10px" /><rect fill="#F9B77B" filter="url(#multiply)" height="9px" stroke="#F9B77B" width="66px" x="0px" y="15px" /><rect fill="#98C0DF" filter="url(#multiply)" height="1px" stroke="#98C0DF" width="66px" x="0px" y="24px" /><rect fill="#F5B1DB" filter="url(#multiply)" height="4px" stroke="#F5B1DB" width="66px" x="0px" y="25px" /><rect fill="#EA196A" filter="url(#multiply)" height="4px" stroke="#EA196A" width="66px" x="0px" y="29px" /><rect fill="#3248BA" filter="url(#multiply)" height="9px" stroke="#3248BA" width="66px" x="0px" y="33px" /><rect fill="#62A469" filter="url(#multiply)" height="5px" stroke="#62A469" width="66px" x="0px" y="42px" /><rect fill="#F5B1DB" filter="url(#multiply)" height="4px" stroke="#F5B1DB" width="66px" x="0px" y="47px" /><rect fill="#F5B1DB" filter="url(#multiply)" height="4px" stroke="#F5B1DB" width="66px" x="0px" y="51px" /><rect fill="#F5B1DB" filter="url(#multiply)" height="2px" stroke="#F5B1DB" width="66px" x="0px" y="55px" /><rect fill="#62A469" filter="url(#multiply)" height="5px" stroke="#62A469" width="66px" x="0px" y="57px" /><rect fill="#F5B1DB" filter="url(#multiply)" height="4px" stroke="#F5B1DB" width="66px" x="0px" y="62px" /></g></svg>